<svg xmlns="http://www.w3.org/2000/svg" width="12.75" height="16" viewBox="0 0 12.75 16"><defs><style>.a{fill:#f26c4d;}</style></defs><g transform="translate(0)"><path class="a" d="M298.289,48.055a.5.5,0,0,1-.353-.147,40.723,40.723,0,0,1-5.351-6.629,6.311,6.311,0,0,1-.671-2.85,6.375,6.375,0,0,1,12.75,0,6.311,6.311,0,0,1-.671,2.85,40.811,40.811,0,0,1-5.35,6.629A.5.5,0,0,1,298.289,48.055Zm0-15a5.381,5.381,0,0,0-5.375,5.374,5.314,5.314,0,0,0,.565,2.4,39.027,39.027,0,0,0,4.81,6.008,38.94,38.94,0,0,0,4.809-6.007,5.375,5.375,0,0,0-4.809-7.777Z" transform="translate(-291.914 -32.055)"/><g transform="translate(3.375 2.889)"><path class="a" d="M298.323,34.965l.941,1.851a.036.036,0,0,0,.027.021l1.966.368a.041.041,0,0,1,.021.068l-1.385,1.512a.042.042,0,0,0-.01.034l.274,2.079a.038.038,0,0,1-.054.042l-1.8-.917a.04.04,0,0,0-.034,0l-1.8.917a.038.038,0,0,1-.054-.042l.274-2.079a.043.043,0,0,0-.011-.034L295.3,37.273a.041.041,0,0,1,.021-.068l1.966-.368a.036.036,0,0,0,.027-.021l.941-1.851A.038.038,0,0,1,298.323,34.965Z" transform="translate(-295.289 -34.944)"/></g></g></svg>