<svg xmlns="http://www.w3.org/2000/svg" width="15" height="15" viewBox="0 0 15 15"><defs><style>.a{fill:#f26c4d;fill-rule:evenodd;}</style></defs><path class="a" d="M314.334,36.89a2.493,2.493,0,0,1,2.413,2.172h3.372a1.839,1.839,0,0,1,1.768-1.5,1.711,1.711,0,0,1,.8.2l1.781-3.006a1.384,1.384,0,0,1-.3-.862,1.265,1.265,0,1,1,1.263,1.338A1.2,1.2,0,0,1,325,35.15l-1.792,3.023a1.979,1.979,0,0,1,.486,1.308,1.951,1.951,0,0,1-.806,1.6l.459,1.075a2.48,2.48,0,0,1,.908-.171,2.791,2.791,0,1,1-2.629,2.786,2.832,2.832,0,0,1,1.144-2.3l-.478-1.118a1.722,1.722,0,0,1-.409.049,1.839,1.839,0,0,1-1.768-1.5h-3.372a2.493,2.493,0,0,1-2.413,2.171,2.6,2.6,0,0,1,0-5.182Z" transform="translate(-311.889 -32.554)"/></svg>